<svg xmlns="http://www.w3.org/2000/svg" width="18.468" height="24" viewBox="0 0 18.468 24">
  <g id="money-bag-icon" transform="translate(-0.024 -0.002)">
    <path id="Path_67" data-name="Path 67" d="M7.469,4.133c-.371-1.094-.7-2.2-.986-3.321,1.051-1.152,5.108-1,6.276-.018l-1.08,2.569c.582-.764.777-1.076,1.123-1.5a3.278,3.278,0,0,1,.412.32A1.683,1.683,0,0,1,13.85,3.2a1.061,1.061,0,0,1-.291.85L11.08,6.932a5.449,5.449,0,0,1-.934-.236c.141-.33.311-.7.451-1.025l-.9.973a3.371,3.371,0,0,0-2.4.293L4.779,3.918a.839.839,0,0,1-.217-.539c0-.729,1.088-1.359,1.66-1.6L7.469,4.133Zm3.223,5.452L10.2,7.34c2.1.391,5.471,4.666,6.559,6.61A18.52,18.52,0,0,1,18.2,17.257c.793,2.957.029,5.723-3.178,6.368a40.072,40.072,0,0,1-7.872.322C4.881,23.83,1.363,23.834.445,21.5c-1.483-3.766,1.234-8.253,3.711-11a13.333,13.333,0,0,1,1.012-1.01A9.69,9.69,0,0,1,8.2,7.366L7.078,9.452,8.705,7.3h.857l1.129,2.289ZM9.647,11.426v.4a3.775,3.775,0,0,1,1.082.26,2.15,2.15,0,0,1,.787.59,2.5,2.5,0,0,1,.41.619,1.437,1.437,0,0,1,.145.584.7.7,0,0,1-.215.51.718.718,0,0,1-.523.215.734.734,0,0,1-.75-.625A1.336,1.336,0,0,0,9.645,13v2.451c.486.133.877.256,1.164.365a2.37,2.37,0,0,1,.775.477,2.218,2.218,0,0,1,.564.773,2.444,2.444,0,0,1,.2.986,2.574,2.574,0,0,1-.316,1.256,2.513,2.513,0,0,1-.93.959,3.277,3.277,0,0,1-1.457.439v.4a1.388,1.388,0,0,1-.068.506.286.286,0,0,1-.3.158.329.329,0,0,1-.3-.129.749.749,0,0,1-.084-.4v-.523a3.694,3.694,0,0,1-1.205-.324,2.839,2.839,0,0,1-.861-.615,2.584,2.584,0,0,1-.508-.766,2.012,2.012,0,0,1-.164-.781.7.7,0,0,1,.221-.508.737.737,0,0,1,.549-.227.789.789,0,0,1,.449.123.652.652,0,0,1,.254.348,7.6,7.6,0,0,0,.275.74,1.464,1.464,0,0,0,.357.469A1.585,1.585,0,0,0,8.9,19.5V16.759a7.179,7.179,0,0,1-1.318-.486,2.215,2.215,0,0,1-.859-.762,2.26,2.26,0,0,1-.33-1.272,2.249,2.249,0,0,1,.645-1.66A2.887,2.887,0,0,1,8.9,11.825V11.44c0-.33.125-.494.371-.494s.379.158.379.481Zm-.748,3.8V12.972a2.023,2.023,0,0,0-.772.389.918.918,0,0,0-.277.732.906.906,0,0,0,.26.7,2.376,2.376,0,0,0,.789.432Zm.748,1.748v2.582a1.61,1.61,0,0,0,.918-.477,1.224,1.224,0,0,0,.324-.838,1,1,0,0,0-.316-.793,2.52,2.52,0,0,0-.926-.475Z" transform="translate(0)" fill="#05264e" fill-rule="evenodd"/>
  </g>
</svg>
