<svg xmlns="http://www.w3.org/2000/svg" width="16.748" height="23.99" viewBox="0 0 16.748 23.99">
  <g id="location-2955" transform="translate(-38.171)">
    <path id="Path_65" data-name="Path 65" d="M46.545,23.99a1.066,1.066,0,0,1-.918-.524l-1.169-1.977c-2.4-4.057-4.667-7.889-5.441-9.444a8.3,8.3,0,0,1-.846-3.671,8.374,8.374,0,1,1,15.907,3.663l-.021.041c-.789,1.575-3.041,5.383-5.425,9.412l-1.168,1.976A1.066,1.066,0,0,1,46.545,23.99Z" transform="translate(0)" fill="#05264e"/>
    <path id="Path_66" data-name="Path 66" d="M87.36,50.177a4.1,4.1,0,1,1,4.1-4.1A4.1,4.1,0,0,1,87.36,50.177Z" transform="translate(-40.815 -38.002)" fill="#fff"/>
  </g>
</svg>
