<svg xmlns="http://www.w3.org/2000/svg" width="20" height="20" viewBox="0 0 20 20">
  <g id="ic_Employees" opacity="0.895">
    <rect id="Rectangle" width="20" height="20" fill="none"/>
    <path id="Shape" d="M0,17.667.341,13.76a3.588,3.588,0,0,1,3.064-2.8l.21-.04L8.8,10.26h.21l5.279.669c1.774.328,3.059,1.288,3.256,2.809l.019.193.227,3.737ZM5.235,6.331,4.991,5.045,4.9,4.534a4.448,4.448,0,0,1-.07-.6A3.9,3.9,0,0,1,8.5.021L8.7.005,8.909,0h.13a3.916,3.916,0,0,1,3.946,3.7v.191a4.291,4.291,0,0,1-.062.594l-.125.73-.059.317-.116.593a3.849,3.849,0,0,1-3.714,3.4A3.784,3.784,0,0,1,5.235,6.331Z" transform="translate(1.091 1.167)" fill="#05264e"/>
  </g>
</svg>
