<svg xmlns="http://www.w3.org/2000/svg" width="23.997" height="23.99" viewBox="0 0 23.997 23.99">
  <path id="user-group-29" d="M73.384,69.571a8.634,8.634,0,0,1,6.99,8.334h-3.22a8.918,8.918,0,0,0-6.382-6.184c-.449,0,.073-.665,0-1.224,1.885-1.348,2.139-6.354,1.852-7.25-1.088-3.387-2.358-5.224-5.543-5.326a4.839,4.839,0,0,1,3.42-1.339c3.194,0,5.2,2.67,5.2,5.9,0,2.433-.887,5.059-2.975,5.942a1.133,1.133,0,0,0,.656,1.146Zm-1.925-4.427c0,2.433-.887,5.059-2.975,5.942a1.136,1.136,0,0,0,.665,1.151,8.635,8.635,0,0,1,6.99,8.336H56.377c0-6.442,6.358-8.336,7.041-8.336a1.188,1.188,0,0,0,.61-1.155c-2.082-.884-2.965-3.507-2.965-5.937,0-3.23,2.008-5.9,5.2-5.9s5.194,2.67,5.194,5.9Z" transform="translate(-56.377 -56.581)" fill="#05264e"/>
</svg>
