<svg id="download-on-the-app-store-apple-logo-svgrepo-com" xmlns="http://www.w3.org/2000/svg" width="148.499" height="44" viewBox="0 0 148.499 44">
  <path id="Path_19" data-name="Path 19" d="M150.1,41.387a4.215,4.215,0,0,1-4.22,4.214H7.787a4.22,4.22,0,0,1-4.225-4.214V7.781a4.226,4.226,0,0,1,4.225-4.22H145.877a4.219,4.219,0,0,1,4.22,4.22V41.387Z" transform="translate(-2.582 -2.582)" fill="#fff"/>
  <path id="Path_20" data-name="Path 20" d="M143.3,44H5.2A5.2,5.2,0,0,1,0,38.807V5.2A5.208,5.208,0,0,1,5.2,0H143.294a5.211,5.211,0,0,1,5.2,5.2V38.805A5.2,5.2,0,0,1,143.3,44Z" fill="#a6a6a6"/>
  <path id="Path_21" data-name="Path 21" d="M150.1,41.387a4.215,4.215,0,0,1-4.22,4.214H7.787a4.22,4.22,0,0,1-4.225-4.214V7.781a4.226,4.226,0,0,1,4.225-4.22H145.877a4.219,4.219,0,0,1,4.22,4.22V41.387Z" transform="translate(-2.582 -2.582)"/>
  <path id="Path_22" data-name="Path 22" d="M70.275,39.8a6.378,6.378,0,0,1,3.039-5.352,6.535,6.535,0,0,0-5.146-2.782c-2.165-.228-4.265,1.3-5.368,1.3-1.125,0-2.823-1.273-4.653-1.236a6.852,6.852,0,0,0-5.767,3.517c-2.494,4.316-.634,10.66,1.755,14.149,1.2,1.71,2.592,3.617,4.42,3.55,1.788-.073,2.457-1.139,4.615-1.139,2.138,0,2.766,1.139,4.63,1.1,1.919-.03,3.128-1.716,4.281-3.441a14.1,14.1,0,0,0,1.958-3.986A6.171,6.171,0,0,1,70.275,39.8ZM66.753,29.374a6.277,6.277,0,0,0,1.437-4.5,6.4,6.4,0,0,0-4.136,2.139,5.974,5.974,0,0,0-1.475,4.333A5.284,5.284,0,0,0,66.753,29.374Z" transform="translate(-37.117 -18.034)" fill="#fff"/>
  <g id="Group_9986" data-name="Group 9986" transform="translate(46.698 19.804)">
    <path id="Path_24" data-name="Path 24" d="M182.177,86.875h-2.5l-1.369-4.3h-4.759l-1.3,4.3h-2.433l4.716-14.643h2.912ZM177.9,80.77l-1.238-3.824q-.2-.586-.738-2.758h-.044q-.218.934-.7,2.758l-1.217,3.824Zm16.386.7a5.978,5.978,0,0,1-1.464,4.257,4.292,4.292,0,0,1-3.256,1.391,3.259,3.259,0,0,1-3.016-1.5v5.54H184.2V79.787q0-1.692-.087-3.47h2.064l.131,1.674h.044a4.175,4.175,0,0,1,6.682-.415A5.838,5.838,0,0,1,194.281,81.466Zm-2.39.086a4.352,4.352,0,0,0-.7-2.543,2.4,2.4,0,0,0-2.043-1.042,2.44,2.44,0,0,0-1.575.575,2.669,2.669,0,0,0-.923,1.511,3.062,3.062,0,0,0-.109.714v1.762a2.824,2.824,0,0,0,.707,1.945,2.346,2.346,0,0,0,1.836.793,2.4,2.4,0,0,0,2.064-1.021A4.493,4.493,0,0,0,191.891,81.552Zm14.538-.086a5.978,5.978,0,0,1-1.464,4.257,4.3,4.3,0,0,1-3.257,1.391,3.259,3.259,0,0,1-3.016-1.5v5.54h-2.346V79.787q0-1.692-.087-3.47h2.064l.131,1.674h.044a4.176,4.176,0,0,1,6.683-.415A5.843,5.843,0,0,1,206.428,81.466Zm-2.392.086a4.352,4.352,0,0,0-.7-2.543,2.4,2.4,0,0,0-2.041-1.042,2.451,2.451,0,0,0-1.577.575,2.668,2.668,0,0,0-.922,1.511,3.133,3.133,0,0,0-.11.714v1.762a2.834,2.834,0,0,0,.705,1.945,2.351,2.351,0,0,0,1.838.793,2.4,2.4,0,0,0,2.064-1.021A4.493,4.493,0,0,0,204.037,81.552Zm15.973,1.216a3.911,3.911,0,0,1-1.3,3.042,5.772,5.772,0,0,1-3.99,1.282,6.965,6.965,0,0,1-3.793-.912l.543-1.955a6.529,6.529,0,0,0,3.39.913,3.2,3.2,0,0,0,2.064-.6,1.952,1.952,0,0,0,.741-1.6,2.045,2.045,0,0,0-.61-1.5,5.653,5.653,0,0,0-2.021-1.129q-3.847-1.434-3.848-4.194a3.7,3.7,0,0,1,1.358-2.954,5.371,5.371,0,0,1,3.6-1.152,7.109,7.109,0,0,1,3.325.7l-.589,1.912a5.815,5.815,0,0,0-2.814-.673,2.862,2.862,0,0,0-1.941.608,1.741,1.741,0,0,0-.589,1.327,1.793,1.793,0,0,0,.675,1.434,7.6,7.6,0,0,0,2.129,1.129,7.216,7.216,0,0,1,2.781,1.78A3.71,3.71,0,0,1,220.01,82.768Zm7.778-4.691H225.2V83.2q0,1.956,1.369,1.954a4.123,4.123,0,0,0,1.042-.109l.065,1.781a5.318,5.318,0,0,1-1.825.26,2.813,2.813,0,0,1-2.174-.848A4.159,4.159,0,0,1,222.9,83.4V78.073h-1.541v-1.76H222.9V74.379l2.3-.7v2.629h2.586v1.765Zm11.646,3.432a5.791,5.791,0,0,1-1.391,4,4.959,4.959,0,0,1-3.867,1.608,4.728,4.728,0,0,1-3.706-1.54,5.615,5.615,0,0,1-1.38-3.888,5.744,5.744,0,0,1,1.423-4.018,4.934,4.934,0,0,1,3.837-1.565,4.827,4.827,0,0,1,3.737,1.543,5.542,5.542,0,0,1,1.348,3.864ZM237,81.563a4.727,4.727,0,0,0-.628-2.491,2.323,2.323,0,0,0-2.109-1.258,2.356,2.356,0,0,0-2.152,1.258,4.805,4.805,0,0,0-.63,2.535,4.713,4.713,0,0,0,.63,2.492,2.407,2.407,0,0,0,4.241-.021A4.746,4.746,0,0,0,237,81.563Zm10.063-3.183a4.084,4.084,0,0,0-.74-.065,2.215,2.215,0,0,0-1.913.935,3.522,3.522,0,0,0-.586,2.085v5.54H241.48V79.642q0-1.663-.068-3.324h2.044l.086,2.02h.065a3.622,3.622,0,0,1,1.173-1.674,2.838,2.838,0,0,1,1.7-.566,3.768,3.768,0,0,1,.587.043l0,2.238ZM257.559,81.1a5.5,5.5,0,0,1-.086,1.064h-7.039a3.062,3.062,0,0,0,1.021,2.392,3.493,3.493,0,0,0,2.3.737,7.788,7.788,0,0,0,2.848-.5l.368,1.627a8.808,8.808,0,0,1-3.541.652,5.133,5.133,0,0,1-3.859-1.444,5.337,5.337,0,0,1-1.4-3.877,6.047,6.047,0,0,1,1.305-3.974,4.5,4.5,0,0,1,3.693-1.693,3.936,3.936,0,0,1,3.457,1.693A5.7,5.7,0,0,1,257.559,81.1Zm-2.237-.608a3.175,3.175,0,0,0-.456-1.8A2.049,2.049,0,0,0,253,77.705a2.225,2.225,0,0,0-1.868.956,3.5,3.5,0,0,0-.694,1.824l4.887,0Z" transform="translate(-169.812 -72.016)" fill="#fff"/>
  </g>
  <g id="Group_9987" data-name="Group 9987" transform="translate(48.072 7.21)">
    <path id="Path_25" data-name="Path 25" d="M176.494,33.853a14.987,14.987,0,0,1-1.687-.086V26.688a12.777,12.777,0,0,1,1.987-.15c2.691,0,3.93,1.324,3.93,3.481C180.723,32.509,179.259,33.853,176.494,33.853Zm.394-6.407a4.709,4.709,0,0,0-.929.075V32.9a6.092,6.092,0,0,0,.779.032,2.55,2.55,0,0,0,2.767-2.883A2.348,2.348,0,0,0,176.888,27.446Zm7.7,6.461a2.47,2.47,0,0,1-2.5-2.669,2.528,2.528,0,0,1,2.585-2.744,2.451,2.451,0,0,1,2.5,2.659,2.543,2.543,0,0,1-2.585,2.754Zm.044-4.571c-.833,0-1.367.779-1.367,1.868,0,1.068.545,1.847,1.356,1.847s1.356-.833,1.356-1.869C185.974,30.126,185.44,29.336,184.629,29.336Zm11.19-.736L194.2,33.789h-1.058l-.672-2.253a17.079,17.079,0,0,1-.417-1.676h-.022a11.232,11.232,0,0,1-.416,1.676l-.715,2.253h-1.069L188.3,28.6h1.185l.588,2.467q.208.881.352,1.666h.022c.085-.437.223-.983.427-1.655l.737-2.477h.94l.705,2.424c.171.588.309,1.164.417,1.709h.031a14.93,14.93,0,0,1,.352-1.709l.631-2.424h1.133Zm5.976,5.189h-1.153V30.81c0-.918-.352-1.378-1.047-1.378a1.2,1.2,0,0,0-1.153,1.271v3.086h-1.153V30.083c0-.459-.011-.951-.043-1.484h1.015l.054.8h.032a1.865,1.865,0,0,1,1.645-.907c1.09,0,1.8.833,1.8,2.189v3.107Zm3.181,0h-1.155v-7.57h1.155Zm4.205.118a2.471,2.471,0,0,1-2.5-2.669,2.527,2.527,0,0,1,2.584-2.744,2.45,2.45,0,0,1,2.5,2.659,2.542,2.542,0,0,1-2.584,2.754Zm.043-4.571c-.833,0-1.367.779-1.367,1.868,0,1.068.546,1.847,1.355,1.847s1.356-.833,1.356-1.869c0-1.056-.532-1.846-1.344-1.846Zm7.089,4.453-.084-.6H216.2a1.772,1.772,0,0,1-1.518.715,1.509,1.509,0,0,1-1.59-1.527c0-1.281,1.11-1.943,3.033-1.943v-.1c0-.683-.362-1.025-1.077-1.025a2.429,2.429,0,0,0-1.356.385l-.234-.758a3.318,3.318,0,0,1,1.782-.449c1.356,0,2.04.715,2.04,2.147v1.911a7.838,7.838,0,0,0,.075,1.239h-1.04Zm-.158-2.585c-1.281,0-1.924.31-1.924,1.046a.735.735,0,0,0,.791.811,1.1,1.1,0,0,0,1.133-1.056Zm6.725,2.585-.054-.833h-.032a1.74,1.74,0,0,1-1.666.951c-1.251,0-2.178-1.1-2.178-2.648,0-1.623.961-2.766,2.273-2.766a1.56,1.56,0,0,1,1.464.705h.023V26.219h1.155v6.172c0,.5.012.972.043,1.4h-1.027Zm-.171-3.053a1.255,1.255,0,0,0-1.215-1.346c-.855,0-1.378.758-1.378,1.825,0,1.046.543,1.763,1.355,1.763a1.3,1.3,0,0,0,1.238-1.378v-.865Zm8.475,3.171a2.47,2.47,0,0,1-2.5-2.669,2.527,2.527,0,0,1,2.584-2.744,2.45,2.45,0,0,1,2.5,2.659,2.541,2.541,0,0,1-2.585,2.754Zm.043-4.571c-.832,0-1.366.779-1.366,1.868,0,1.068.545,1.847,1.355,1.847s1.356-.833,1.356-1.869c0-1.056-.532-1.846-1.345-1.846Zm8.745,4.453h-1.155V30.81c0-.918-.352-1.378-1.047-1.378a1.2,1.2,0,0,0-1.152,1.271v3.086h-1.155V30.083c0-.459-.011-.951-.043-1.484h1.015l.054.8h.032a1.864,1.864,0,0,1,1.644-.908c1.09,0,1.806.833,1.806,2.189Zm7.76-4.324h-1.269v2.52c0,.641.222.962.671.962a2.273,2.273,0,0,0,.512-.054l.032.876a2.556,2.556,0,0,1-.895.129c-.909,0-1.453-.5-1.453-1.816V29.465h-.757V28.6h.757V27.65l1.133-.342V28.6h1.269v.866Zm6.106,4.324h-1.152V30.832c0-.929-.351-1.4-1.047-1.4a1.131,1.131,0,0,0-1.155,1.228v3.128h-1.152v-7.57h1.152v3.117h.023a1.75,1.75,0,0,1,1.561-.844c1.1,0,1.77.854,1.77,2.211v3.086Zm6.256-2.317h-3.461a1.489,1.489,0,0,0,1.635,1.537,3.9,3.9,0,0,0,1.4-.245l.179.8a4.334,4.334,0,0,1-1.741.32,2.409,2.409,0,0,1-2.584-2.615,2.534,2.534,0,0,1,2.454-2.787,2.179,2.179,0,0,1,2.158,2.467,2.221,2.221,0,0,1-.04.523Zm-1.058-.822c0-.8-.4-1.367-1.141-1.367a1.368,1.368,0,0,0-1.261,1.367Z" transform="translate(-174.806 -26.219)" fill="#fff"/>
  </g>
</svg>
