<svg xmlns="http://www.w3.org/2000/svg" xmlns:xlink="http://www.w3.org/1999/xlink" width="88.629" height="88.713" viewBox="0 0 88.629 88.713">
  <defs>
    <clipPath id="clip-path">
      <rect id="Rectangle_182" data-name="Rectangle 182" width="88.629" height="78.38" fill="none"/>
    </clipPath>
  </defs>
  <g id="student" transform="translate(-1569.545 -389.287)">
    <circle id="Ellipse_21" data-name="Ellipse 21" cx="44" cy="44" r="44" transform="translate(1570 390)" fill="#fff"/>
    <g id="Group_10041" data-name="Group 10041" transform="translate(1569.545 389.287)">
      <g id="Group_10040" data-name="Group 10040" transform="translate(0 0)" clip-path="url(#clip-path)">
        <path id="Path_69" data-name="Path 69" d="M88.629,42.9v2.952c-.065.367-.152.731-.192,1.1-.181,1.606-.268,3.227-.537,4.817A43.748,43.748,0,0,1,73.153,78.064a4.1,4.1,0,0,1-.427.313c-1.25-.7-2.386-1.391-3.567-1.988-4.249-2.154-8.516-4.267-12.77-6.412a5.211,5.211,0,0,1-3.12-4.992c.007-1.592-.027-3.185.018-4.777a2.136,2.136,0,0,1,.4-1.174,33.442,33.442,0,0,0,5.048-9.346,1.97,1.97,0,0,1,.859-.962A4.582,4.582,0,0,0,62.145,44.5c.016-1.881,0-3.762,0-5.645a4.849,4.849,0,0,0-1.065-3.048,1.687,1.687,0,0,1-.391-.91c-.025-2.749-.105-5.5.022-8.248A11.674,11.674,0,0,0,53.973,15.2a20.311,20.311,0,0,0-7.181-1.751,25.954,25.954,0,0,0-10.681,1.1,11.619,11.619,0,0,0-8.344,11.672c.007,2.836.045,5.674.029,8.51a1.976,1.976,0,0,1-.4,1.08,4.936,4.936,0,0,0-1.053,3.053q.017,2.781,0,5.56a4.789,4.789,0,0,0,1.617,3.692,2.219,2.219,0,0,1,.613.991,30.356,30.356,0,0,0,4.795,9.939,2.1,2.1,0,0,1,.407,1.085c.042,1.59.056,3.185.007,4.775a5.135,5.135,0,0,1-2.612,4.616c-5.18,2.9-10.395,5.748-15.659,8.65.072.04.016.02-.027-.018C3.021,66.925-2,52.99.72,36.424A42.045,42.045,0,0,1,13.273,12.779,43.305,43.305,0,0,1,39.437.371C40.519.25,41.6.123,42.689,0h3.12c.423.067.843.157,1.268.2,1.346.143,2.706.2,4.041.414a42.953,42.953,0,0,1,19.7,8.364A43.729,43.729,0,0,1,88.253,39.652c.127,1.082.25,2.167.376,3.252" transform="translate(0 0)" fill="#c5c5c5"/>
      </g>
    </g>
  </g>
</svg>
