<svg id="google-play-badge-logo-svgrepo-com" xmlns="http://www.w3.org/2000/svg" xmlns:xlink="http://www.w3.org/1999/xlink" width="149" height="44.148" viewBox="0 0 149 44.148">
  <defs>
    <linearGradient id="linear-gradient" x1="0.908" y1="1.032" x2="-0.383" y2="0.36" gradientUnits="objectBoundingBox">
      <stop offset="0" stop-color="#00a0ff"/>
      <stop offset="0.007" stop-color="#00a1ff"/>
      <stop offset="0.26" stop-color="#00beff"/>
      <stop offset="0.512" stop-color="#00d2ff"/>
      <stop offset="0.76" stop-color="#00dfff"/>
      <stop offset="1" stop-color="#00e3ff"/>
    </linearGradient>
    <linearGradient id="linear-gradient-2" x1="1.077" y1="0.729" x2="-1.307" y2="0.729" gradientUnits="objectBoundingBox">
      <stop offset="0" stop-color="#ffe000"/>
      <stop offset="0.409" stop-color="#ffbd00"/>
      <stop offset="0.775" stop-color="orange"/>
      <stop offset="1" stop-color="#ff9c00"/>
    </linearGradient>
    <linearGradient id="linear-gradient-3" x1="0.864" y1="-0.023" x2="-0.499" y2="-1.789" gradientUnits="objectBoundingBox">
      <stop offset="0" stop-color="#ff3a44"/>
      <stop offset="1" stop-color="#c31162"/>
    </linearGradient>
    <linearGradient id="linear-gradient-4" x1="-0.186" y1="2.701" x2="0.423" y2="1.909" gradientUnits="objectBoundingBox">
      <stop offset="0" stop-color="#32a071"/>
      <stop offset="0.069" stop-color="#2da771"/>
      <stop offset="0.476" stop-color="#15cf74"/>
      <stop offset="0.801" stop-color="#06e775"/>
      <stop offset="1" stop-color="#00f076"/>
    </linearGradient>
  </defs>
  <path id="Path_26" data-name="Path 26" d="M143.481,44.148H5.519A5.465,5.465,0,0,1,0,38.63V5.519A5.465,5.465,0,0,1,5.519,0H143.481A5.465,5.465,0,0,1,149,5.519V38.63A5.465,5.465,0,0,1,143.481,44.148Z"/>
  <path id="Path_27" data-name="Path 27" d="M143.481.883a4.664,4.664,0,0,1,4.636,4.636V38.63a4.664,4.664,0,0,1-4.636,4.636H5.519A4.664,4.664,0,0,1,.883,38.63V5.519A4.664,4.664,0,0,1,5.519.883H143.481m0-.883H5.519A5.535,5.535,0,0,0,0,5.519V38.63a5.465,5.465,0,0,0,5.519,5.519H143.481A5.465,5.465,0,0,0,149,38.63V5.519A5.535,5.535,0,0,0,143.481,0Z" fill="#a6a6a6"/>
  <path id="Path_28" data-name="Path 28" d="M48.022,10.542a3.006,3.006,0,0,1-.773,2.207,3.422,3.422,0,0,1-5.85-2.428A3.392,3.392,0,0,1,44.821,6.9a2.939,2.939,0,0,1,1.324.331A2.4,2.4,0,0,1,47.139,8l-.552.552a2.058,2.058,0,0,0-1.766-.773,2.2,2.2,0,0,0-1.766.773,2.274,2.274,0,0,0-.773,1.876,2.274,2.274,0,0,0,.773,1.876,2.842,2.842,0,0,0,1.766.773,2.421,2.421,0,0,0,1.876-.773,1.828,1.828,0,0,0,.552-1.324H44.821V10.1h3.2v.441ZM53.1,7.783h-2.98v2.1h2.759v.773H50.119v2.1H53.1v.883H49.236V7.01H53.1Zm3.642,5.85h-.883V7.783H53.982V7.01h4.636v.773H56.741Zm5.077,0V7.01H62.7v6.622Zm4.636,0h-.883V7.783H63.695V7.01H68.22v.773H66.344v5.85Zm10.485-.883a3.422,3.422,0,0,1-5.85-2.428,3.422,3.422,0,1,1,6.843,0A3.245,3.245,0,0,1,76.939,12.75ZM72.745,12.2a2.6,2.6,0,0,0,1.766.773,2.2,2.2,0,0,0,1.766-.773,2.663,2.663,0,0,0,.773-1.876,2.274,2.274,0,0,0-.773-1.876,2.6,2.6,0,0,0-1.766-.773,2.2,2.2,0,0,0-1.766.773,2.663,2.663,0,0,0-.773,1.876A2.274,2.274,0,0,0,72.745,12.2Zm6.4,1.435V7.01h.993l3.2,5.187V7.01h.883v6.622h-.883L79.919,8.224v5.408h-.773Z" transform="translate(4.293 0.716)" fill="#fff" stroke="#fff" stroke-miterlimit="10" stroke-width="0.2"/>
  <path id="Path_29" data-name="Path 29" d="M70.9,22.287a4.643,4.643,0,0,0-4.746,4.746A4.711,4.711,0,0,0,70.9,31.779a4.643,4.643,0,0,0,4.746-4.746A4.579,4.579,0,0,0,70.9,22.287Zm0,7.505a2.879,2.879,0,0,1,0-5.739,2.674,2.674,0,0,1,2.649,2.87A2.74,2.74,0,0,1,70.9,29.793ZM60.636,22.287a4.643,4.643,0,0,0-4.746,4.746,4.711,4.711,0,0,0,4.746,4.746,4.643,4.643,0,0,0,4.746-4.746A4.579,4.579,0,0,0,60.636,22.287Zm0,7.505a2.879,2.879,0,0,1,0-5.739,2.674,2.674,0,0,1,2.649,2.87A2.74,2.74,0,0,1,60.636,29.793Zm-12.251-6.07v1.987H53.13a4.173,4.173,0,0,1-1.1,2.539,4.885,4.885,0,0,1-3.642,1.435,5.139,5.139,0,0,1-5.187-5.3,5.206,5.206,0,0,1,5.187-5.3,5.473,5.473,0,0,1,3.642,1.435l1.435-1.435A7.073,7.073,0,0,0,48.495,17.1,7.445,7.445,0,0,0,41.1,24.384a7.445,7.445,0,0,0,7.395,7.284,6.352,6.352,0,0,0,5.077-2.1,6.644,6.644,0,0,0,1.766-4.636,4.138,4.138,0,0,0-.11-1.214H48.384Zm50.108,1.545a4.288,4.288,0,0,0-3.973-2.98A4.445,4.445,0,0,0,90.1,27.033a4.619,4.619,0,0,0,4.636,4.746,4.528,4.528,0,0,0,3.863-2.1l-1.545-1.1A2.69,2.69,0,0,1,94.74,29.9a2.4,2.4,0,0,1-2.318-1.435l6.291-2.649-.221-.552Zm-6.4,1.545a2.681,2.681,0,0,1,2.428-2.759,1.952,1.952,0,0,1,1.766.993l-4.194,1.766ZM86.9,31.338H89v-13.8H86.9Zm-3.311-8.057a3.634,3.634,0,0,0-2.539-1.1,4.742,4.742,0,0,0-4.525,4.746,4.57,4.57,0,0,0,4.525,4.636,3.169,3.169,0,0,0,2.428-1.1h.11v.662a2.509,2.509,0,0,1-4.856,1.1l-1.766.773a4.553,4.553,0,0,0,4.194,2.759c2.428,0,4.415-1.435,4.415-4.856V22.508H83.593v.773Zm-2.428,6.512a2.879,2.879,0,0,1,0-5.739,2.655,2.655,0,0,1,2.539,2.87A2.655,2.655,0,0,1,81.164,29.793Zm26.93-12.251h-4.967v13.8h2.1V26.15h2.87a4.31,4.31,0,1,0,0-8.609Zm.11,6.622h-2.98V19.418h2.98a2.424,2.424,0,0,1,2.428,2.318,2.526,2.526,0,0,1-2.428,2.428ZM120.9,22.177a3.71,3.71,0,0,0-3.642,2.1l1.876.773a1.95,1.95,0,0,1,1.876-.993,2.074,2.074,0,0,1,2.207,1.766v.11a4.378,4.378,0,0,0-2.1-.552c-1.987,0-3.973,1.1-3.973,3.09a3.233,3.233,0,0,0,3.421,3.09,3.106,3.106,0,0,0,2.649-1.324h.11v1.1h1.987v-5.3a4.177,4.177,0,0,0-4.415-3.863Zm-.221,7.616c-.662,0-1.656-.331-1.656-1.214,0-1.1,1.214-1.435,2.207-1.435a4.268,4.268,0,0,1,1.876.441A2.571,2.571,0,0,1,120.677,29.793Zm11.589-7.284-2.318,5.96h-.11l-2.428-5.96H125.2l3.642,8.388-2.1,4.636h2.1l5.629-13.024h-2.207Zm-18.542,8.83h2.1v-13.8h-2.1Z" transform="translate(4.262 1.773)" fill="#fff"/>
  <g id="Group_9988" data-name="Group 9988" transform="translate(11.037 7.888)">
    <path id="Path_30" data-name="Path 30" d="M10.441,7.5A2.158,2.158,0,0,0,10,9.045V33.437a2.183,2.183,0,0,0,.552,1.545l.11.11L24.348,21.407v-.221Z" transform="translate(-10 -7.111)" fill="url(#linear-gradient)"/>
    <path id="Path_31" data-name="Path 31" d="M27.425,25.181,22.9,20.656v-.331L27.425,15.8l.11.11L32.944,19c1.545.883,1.545,2.318,0,3.2Z" transform="translate(-8.662 -6.25)" fill="url(#linear-gradient-2)"/>
    <path id="Path_32" data-name="Path 32" d="M28.832,24.636,24.2,20,10.4,33.8c.552.552,1.324.552,2.318.11l16.114-9.271" transform="translate(-9.959 -5.814)" fill="url(#linear-gradient-3)"/>
    <path id="Path_33" data-name="Path 33" d="M28.832,16.695,12.718,7.534a1.789,1.789,0,0,0-2.318.11L24.2,21.33l4.636-4.636Z" transform="translate(-9.959 -7.145)" fill="url(#linear-gradient-4)"/>
    <path id="Path_34" data-name="Path 34" d="M28.721,24.1l-16,9.05a1.8,1.8,0,0,1-2.207,0l-.11.11.11.11a1.8,1.8,0,0,0,2.207,0Z" transform="translate(-9.959 -5.389)" opacity="0.2"/>
    <path id="Path_35" data-name="Path 35" d="M10.441,33.576A2.158,2.158,0,0,1,10,32.03v.11a2.183,2.183,0,0,0,.552,1.545v-.11h-.11Zm23.84-12.141-5.519,3.09.11.11,5.408-3.09A1.835,1.835,0,0,0,35.385,20C35.385,20.552,34.944,20.993,34.281,21.435Z" transform="translate(-10 -5.814)" opacity="0.12"/>
    <path id="Path_36" data-name="Path 36" d="M12.759,7.647,34.281,19.9c.662.441,1.1.883,1.1,1.435a1.835,1.835,0,0,0-1.1-1.545L12.759,7.537C11.214,6.654,10,7.316,10,9.082v.11C10,7.537,11.214,6.764,12.759,7.647Z" transform="translate(-10 -7.147)" fill="#fff" opacity="0.25"/>
  </g>
</svg>
