<svg xmlns="http://www.w3.org/2000/svg" width="50" height="50" viewBox="0 0 50 50">
  <g id="placeholder" transform="translate(-798 -309)">
    <g id="Rectangle_177" data-name="Rectangle 177" transform="translate(798 309)" fill="#fff" stroke="#c9c9c9" stroke-width="1">
      <rect width="50" height="50" rx="4" stroke="none"/>
      <rect x="0.5" y="0.5" width="49" height="49" rx="3.5" fill="none"/>
    </g>
    <path id="Icon_metro-file-image" data-name="Icon metro-file-image" d="M27.842,8.745a4.006,4.006,0,0,1,.826,1.308,3.973,3.973,0,0,1,.344,1.515V31.4a1.646,1.646,0,0,1-1.653,1.653H4.223A1.646,1.646,0,0,1,2.571,31.4V3.856A1.646,1.646,0,0,1,4.223,2.2H19.648a3.974,3.974,0,0,1,1.515.344,4.006,4.006,0,0,1,1.308.826ZM20.2,4.545v6.473h6.473a1.881,1.881,0,0,0-.379-.706L20.9,4.923a1.88,1.88,0,0,0-.706-.379Zm6.61,26.3V13.221H19.648a1.646,1.646,0,0,1-1.653-1.653V4.407H4.774V30.849H26.809Zm-2.2-7.712v5.509H6.978V25.34l3.305-3.305,2.2,2.2,6.61-6.61ZM10.283,19.831a3.291,3.291,0,0,1-3.305-3.305,3.291,3.291,0,0,1,3.305-3.305,3.291,3.291,0,0,1,3.305,3.305,3.291,3.291,0,0,1-3.305,3.305Z" transform="translate(807.43 316.796)" fill="#a5a4b7"/>
  </g>
</svg>
