<svg xmlns="http://www.w3.org/2000/svg" width="124.404" height="41.205" viewBox="0 0 124.404 41.205">
  <g id="jobhub-logo" transform="translate(3.708 2.204)">
    <g id="Group_10043" data-name="Group 10043">
      <g id="Group_10033" data-name="Group 10033" transform="translate(-3.708 -4.204)">
        <path id="Path_57" data-name="Path 57" d="M0,12.492,18.218,2V24.128L0,33.666Z" fill="#fcfcfc"/>
        <path id="Path_58" data-name="Path 58" d="M32.642,12.492,14.424,2V24.128l18.218,9.538Z" transform="translate(3.698)" fill="#efefef"/>
        <path id="Path_59" data-name="Path 59" d="M18.122,19.613,36.34,29.151,18.122,38.689,0,29.151Z" transform="translate(0 4.516)" fill="#dfe6ff"/>
      </g>
      <path id="Path_61" data-name="Path 61" d="M11.443-9.053H8.1V0H1.934V-25.594H12.006a11.242,11.242,0,0,1,7.119,2.019,6.842,6.842,0,0,1,2.566,5.707,8.31,8.31,0,0,1-1.081,4.425A7.673,7.673,0,0,1,17.227-10.6L22.57-.264V0H15.961ZM8.1-13.8H12a3.5,3.5,0,0,0,2.646-.925,3.577,3.577,0,0,0,.888-2.582,3.619,3.619,0,0,0-.9-2.6A3.47,3.47,0,0,0,12-20.85H8.1Zm30.516,7a2.535,2.535,0,0,0-.958-2.109,11.907,11.907,0,0,0-3.366-1.564,32.3,32.3,0,0,1-3.937-1.564Q25.38-14.48,25.38-18.752a6.021,6.021,0,0,1,1.239-3.753,8.015,8.015,0,0,1,3.507-2.531,13.647,13.647,0,0,1,5.1-.905,11.937,11.937,0,0,1,4.948.984,7.834,7.834,0,0,1,3.4,2.8A7.322,7.322,0,0,1,44.789-18H38.637a3.094,3.094,0,0,0-.958-2.426,3.734,3.734,0,0,0-2.593-.861,4.211,4.211,0,0,0-2.61.729,2.238,2.238,0,0,0-.958,1.854,2.253,2.253,0,0,0,1.055,1.784,13.3,13.3,0,0,0,3.709,1.652,22.721,22.721,0,0,1,4.359,1.837q4.148,2.391,4.148,6.592a6.249,6.249,0,0,1-2.531,5.273A11.259,11.259,0,0,1,35.314.352,13.775,13.775,0,0,1,29.681-.765a8.494,8.494,0,0,1-3.8-3.059A7.97,7.97,0,0,1,24.609-8.3H30.8a3.925,3.925,0,0,0,1.06,3.035,5.027,5.027,0,0,0,3.454.976,3.971,3.971,0,0,0,2.417-.659A2.176,2.176,0,0,0,38.619-6.8ZM56.057-25.594,61.77-7.787l5.7-17.807h8.121V0H69.4V-5.977L70-18.211,63.809,0H59.73l-6.2-18.229.6,12.252V0h-6.17V-25.594Z" transform="translate(45.105 31.796)" fill="#fff"/>
    </g>
  </g>
</svg>
