<svg xmlns="http://www.w3.org/2000/svg" xmlns:xlink="http://www.w3.org/1999/xlink" width="79.452" height="86.16" viewBox="0 0 79.452 86.16">
  <defs>
    <clipPath id="clip-path">
      <rect id="Rectangle_181" data-name="Rectangle 181" width="79.452" height="86.16" fill="none"/>
    </clipPath>
  </defs>
  <g id="Group_10039" data-name="Group 10039" transform="translate(-1287 -180.18)">
    <ellipse id="Ellipse_20" data-name="Ellipse 20" cx="21.5" cy="18.5" rx="21.5" ry="18.5" transform="translate(1305.202 223.26)" fill="#fff"/>
    <g id="Group_10038" data-name="Group 10038" transform="translate(1287 180.18)">
      <g id="Group_10037" data-name="Group 10037" clip-path="url(#clip-path)">
        <path id="Path_68" data-name="Path 68" d="M26.692,47.151c.089,1.39.163,2.659.253,3.927C27.2,54.7,28.586,58.053,29.555,61.5c1.3,4.625,2.7,9.22,4.066,13.827a1.333,1.333,0,0,1,.11.643c.784-3.578,1.493-7.176,2.389-10.726A30.357,30.357,0,0,1,37.8,61.269a1,1,0,0,0,0-.772,25.378,25.378,0,0,0-1.715-2.7c-.329-.433-.374-.742-.065-1.134.746-.948,1.5-1.891,2.29-2.888-1-.713-2.114-1.438-3.151-2.258q-3-2.368-5.908-4.844a1.408,1.408,0,0,1-.339-1.1c.148-1.058.442-2.094.617-3.149a2.326,2.326,0,0,0-.127-1.079c-.825-2.432-1.664-4.859-2.536-7.275a2.481,2.481,0,0,0-.657-.755,6.221,6.221,0,0,1-1.04-1.011A11.343,11.343,0,0,1,23.557,24.9a6.52,6.52,0,0,1,.489-1.275,2.446,2.446,0,0,0,.244-.9c-.175-2.915-.454-5.825-.551-8.742A7.882,7.882,0,0,1,25.2,9.061a16.014,16.014,0,0,1,1.951-1.9,2.117,2.117,0,0,0,.471-.577C29.791,1.9,33.62-.155,38.6.009A19.106,19.106,0,0,1,53,7a10.6,10.6,0,0,1,2.73,7.244c-.073,2.83-.382,5.653-.56,8.481a3.019,3.019,0,0,0,.244.9A9.758,9.758,0,0,1,56,25.853a11.149,11.149,0,0,1-1.493,6.078A8.664,8.664,0,0,1,53,33.377a1.672,1.672,0,0,0-.391.609q-1.331,3.756-2.627,7.524a1.555,1.555,0,0,0-.04.746c.2,1.112.393,2.225.655,3.323a.957.957,0,0,1-.381,1.117c-3,2.407-5.98,4.833-8.954,7.242.616.75,1.347,1.626,2.059,2.515.4.5.534.993-.076,1.482a4.307,4.307,0,0,0-.636.822,2.966,2.966,0,0,0-.357,3.691c1.606,2.94,2.1,6.294,2.682,9.573.235,1.309.391,2.633.611,4.14.129-.355.217-.562.28-.776,2.007-6.8,4.1-13.58,5.97-20.417a48.3,48.3,0,0,0,.9-6.779c.039-.312.05-.627.083-1.071l2.28.962c4.373,1.846,8.768,3.642,13.114,5.55a14.692,14.692,0,0,1,8.772,10.734c.806,3.527,1.555,7.067,2.309,10.606.547,2.567-.03,3.963-2.271,5.363a28.1,28.1,0,0,1-8.94,3.234,116.3,116.3,0,0,1-20.337,2.4,168.827,168.827,0,0,1-25.347-.689c-5.881-.62-11.735-1.432-17.282-3.639A19.461,19.461,0,0,1,2.164,80.12,4.2,4.2,0,0,1,.134,75.276c.838-3.9,1.573-7.838,2.585-11.7a14.383,14.383,0,0,1,8.515-9.928c4.909-2.138,9.86-4.178,14.794-6.258.183-.077.373-.136.664-.242" transform="translate(0 0)" fill="#05264e"/>
      </g>
    </g>
  </g>
</svg>
